PathFileType	4	(X/Y/Z)	Patient4_TMGait_0pt5_01_left_03.trc.trc
DataRate	CameraRate	NumFrames	NumMarkers	Units	OrigDataRate	OrigDataStartFrame	OrigNumFrames
71.794871794872	71.794871794872	4	33	mm	71.794871794872	36	       141
Frame#	Time	L.ASIS			Sacral			L.Shoulder			Chest			R.Shoulder			Neck			R.ASIS			R.Thigh.Superior			R.Thigh.Lateral			R.Thigh.Inferior			R.Patella			L.Thigh.Superior			L.Thigh.Lateral			L.Thigh.Inferior			L.Patella			L.Shank.Superior			L.Shank.Lateral			L.Shank.Inferior			R.Shank.Superior			R.Shank.Lateral			R.Shank.Inferior			R.Heel			R.Midfoot.Superior			R.Midfoot.Lateral			R.Toe			L.Heel			L.Midfoot.Lateral			L.Midfoot.Superior			L.Toe			L.Elbow			L.Wrist			R.Elbow			R.Wrist			
		X1	Y1	Z1	X2	Y2	Z2	X3	Y3	Z3	X4	Y4	Z4	X5	Y5	Z5	X6	Y6	Z6	X7	Y7	Z7	X8	Y8	Z8	X9	Y9	Z9	X10	Y10	Z10	X11	Y11	Z11	X12	Y12	Z12	X13	Y13	Z13	X14	Y14	Z14	X15	Y15	Z15	X16	Y16	Z16	X17	Y17	Z17	X18	Y18	Z18	X19	Y19	Z19	X20	Y20	Z20	X21	Y21	Z21	X22	Y22	Z22	X23	Y23	Z23	X24	Y24	Z24	X25	Y25	Z25	X26	Y26	Z26	X27	Y27	Z27	X28	Y28	Z28	X29	Y29	Z29	X30	Y30	Z30	X31	Y31	Z31	X32	Y32	Z32	X33	Y33	Z33	

36	4.307500000000	748.669607612416	956.859078020575	325.806352492200	547.742635806965	998.057575460829	502.416927538808	680.169605049994	1428.690745871264	305.480294193544	805.674606106540	1363.693283664074	451.959482189253	741.117470116252	1436.439616305207	635.306323366512	698.945401602939	1490.415547059668	454.826433792586	784.411714932179	935.486280431828	598.694744392837	787.854466959315	721.523526186177	574.172222300217	690.078374619489	625.174550443962	639.454955288175	751.029701533307	558.810529663577	558.474289328453	732.539758891684	462.335970960161	567.633351684445	827.044034576892	765.971883252216	365.011032043950	764.199284222351	637.836736334469	299.604687289196	859.624124056919	574.077277260302	365.046351116881	871.796736563165	501.729289548904	371.379657611420	852.084231699058	427.297250006982	361.256008479458	775.731502939061	305.368329146953	305.480315057421	838.929581910034	198.925246797910	375.554894072096	677.039396659518	385.892923807689	576.909330511851	580.707222025858	309.528894484020	644.597181284940	589.249579029603	204.937232252575	584.983214147646	413.679278843013	69.115873929122	564.772106452080	591.115670348846	100.255778803483	597.330167371277	496.649538833513	49.712257030529	636.747495874905	702.776162876776	36.995029541093	625.209069636421	723.370055915447	37.525579965814	410.385378154802	801.069488391901	35.526907127765	332.854795238268	881.683522866438	97.910636156546	362.344929301383	1011.370907865603	49.345940324224	340.975154570852	576.249646078395	1085.746108340968	210.023264613746	604.903732512363	825.738512248735	206.033439424257	854.822330271073	1112.477603613092	746.492071646296	1084.582125377366	1126.528160257030	643.520562436864	
37	4.321428571429	748.971391253489	957.636597399404	322.903271405828	546.830893251204	998.829329425802	498.461921955637	680.261982060993	1429.120594323129	301.807417401553	805.117553171663	1364.414205164638	448.962563349070	739.807957919131	1437.782012123897	631.743750148021	698.320347717464	1491.149167647696	451.036233152200	783.354566447651	936.245609730669	596.033914868046	789.451563575271	722.554740908180	571.978027172278	693.067666087030	625.121622702985	637.002698525457	755.904566843286	559.094149823613	556.681379576122	738.415090674981	460.912139760949	567.202330187830	826.614362148965	765.957588957408	362.066118392780	762.531124173997	638.012895874003	297.599860636228	857.405408775121	573.635500358665	363.023518700225	868.967770879734	501.321309088524	370.058288713148	848.695442797917	426.808938544751	360.165751446092	771.487959711518	305.424478390054	304.330089528788	833.163864663850	198.674020727053	375.251312776848	680.237426458505	385.577766619952	576.023320777605	581.351156112148	312.258719296252	643.309214143422	587.863716120029	206.954208252204	584.732527784322	408.836703743740	75.985591155202	564.679738717495	587.093446323172	101.247298492432	597.493689424778	491.028693104353	53.745450131112	636.637439385004	696.012902979493	36.390681042603	625.160730820902	716.419725671107	37.529775075104	410.350650479618	794.077108926219	35.570153765779	332.744559424829	874.619693458641	98.003338715392	362.242637312170	1004.356694085427	49.667716932410	340.806304778769	579.215173344933	1085.115309067612	206.097157192462	615.207569119230	825.903226026689	202.227285680899	849.810807924157	1112.382241453116	743.751279121810	1080.642093742467	1113.721492920309	641.367272441574	
38	4.335357142857	749.204869916486	958.345129385324	320.080642396319	545.814940045000	999.548089942626	494.505419300093	680.473208744641	1429.533164042696	298.098743284404	804.522756056660	1365.133536367152	446.051566119638	738.266824791758	1439.070944199625	628.218670427595	697.642334068367	1491.855710452738	447.226873147015	782.176165884775	936.969012027069	593.422000982430	791.558755386617	723.766529531341	569.783870824831	696.921612126603	625.034704567214	634.617423406973	761.808711878748	559.507508516906	554.954139771247	745.412407189005	459.589879599598	566.910283020862	825.861539070944	765.624552930041	358.763884833174	760.201440710331	638.000929776893	295.469129728583	854.604714621215	572.986442894284	360.734973005658	865.573781575538	500.799870065738	368.462852153888	844.790925035303	426.235022909297	358.860177263610	766.738325800757	305.297382140242	303.169275361084	827.134895909483	198.340347947083	374.844016358519	684.534751017992	385.376146397956	575.236085352569	582.995209186744	315.403263929696	641.998257484045	587.307816099268	209.434395780987	584.484942942191	404.684154522022	84.178442103567	564.378008397417	583.572503961463	102.556409564402	597.604032656890	485.760623404322	58.744962203779	636.399595677177	689.147998527100	35.687825659048	625.112114939382	709.326440781466	37.477372392885	410.329255393521	786.944201350679	35.517703142668	332.640448080310	867.466984999806	97.968702556206	362.133145019467	997.252229441336	49.761218908863	340.653762916296	582.338106301225	1084.543941270592	201.912951518103	625.937785746548	826.394518384072	198.236333967696	844.129867557425	1112.129093877627	741.033663844746	1075.596895924316	1100.038430506304	639.647657131788	
39	4.349285714286	749.349451828774	958.964671763924	317.349152202945	544.717016915415	1000.170890677937	490.595482717802	680.784188474420	1429.894731276986	294.391367502996	803.885643679540	1365.813406856720	443.248073110671	736.506313886534	1440.250135380758	624.768060716908	696.906700225411	1492.501529890662	443.435609786101	780.881497782560	937.610615915639	590.860744521466	794.169121909482	725.168219520207	567.564309752843	701.649590768576	624.942551491181	632.312257056450	768.706887343548	560.093628933200	553.283125119286	753.486299569551	458.443909671130	566.704887611611	824.801255191105	765.012810122400	355.214108885809	757.346303357907	637.845120401319	293.214899912037	851.317803219010	572.179693504179	358.247162989022	861.689678727547	500.180625375156	366.625106959258	840.456856232160	425.588984021783	357.354132065978	761.592463085845	305.004497075471	301.968950768187	820.921009384247	197.936054425055	374.334715926527	689.938294471801	385.341176233668	574.514944075104	585.691512975286	318.994462085550	640.648444145143	587.626526177227	212.440377556483	584.189856449890	401.362991369165	93.771732626083	563.786278253238	580.589392721441	104.307320585231	597.613191627096	480.941628014336	64.841274304835	635.976363453038	682.219847023501	34.895103617152	625.075276781835	702.150524116309	37.385780526170	410.311480571346	779.733069325955	35.392662368625	332.538161723302	860.284559520743	97.821902249984	362.022871069309	990.110333605563	49.643122311767	340.529685884218	585.662159590430	1083.995218388445	197.464216478285	637.025634181578	827.176548395175	194.072716070920	837.717926429372	1111.641214803519	738.352245837286	1069.289753645294	1085.575230589619	638.442528925558	
